<svg width="211" height="151" viewBox="0 0 211 151" fill="none" xmlns="http://www.w3.org/2000/svg">
<path d="M168.338 122.775L151.748 123.96L148.588 140.156L132.787 135.613L124.294 149.834L110.864 139.959L98.0257 150.426L88.7428 136.601L73.1397 142.131L69.1895 125.935L52.599 125.738L54.3765 109.147L38.7735 103.42L46.0813 88.4089L33.6382 77.546L45.4886 66.0905L37.5883 51.6724L52.599 44.9571L50.0314 28.564L66.622 27.5764L69.7822 11.1833L85.5827 15.9235L94.0755 1.50537L107.506 11.3808L120.344 0.912842L129.627 14.7384L145.23 9.20818L149.18 25.4038L165.771 25.6014L163.993 42.192L179.596 47.9198L172.288 62.9304L184.731 73.7933L172.684 85.2488L180.781 99.6669L165.573 106.382L168.338 122.775Z" fill="url(#paint0_linear_12_2892)"/>
<path d="M109.086 131.663C139.956 131.663 164.981 106.638 164.981 75.7684C164.981 44.8986 139.956 19.8737 109.086 19.8737C78.2163 19.8737 53.1914 44.8986 53.1914 75.7684C53.1914 106.638 78.2163 131.663 109.086 131.663Z" fill="url(#paint1_radial_12_2892)"/>
<path d="M117.776 69.8431C103.556 58.1901 98.0253 40.6119 105.333 30.539C112.641 20.4661 130.219 21.4536 144.637 33.1066C158.858 44.7596 164.388 62.3378 157.08 72.4107C149.575 82.6811 131.997 81.4961 117.776 69.8431Z" fill="url(#paint2_radial_12_2892)"/>
<path opacity="0.4" d="M59.709 88.0138C61.6841 81.8911 71.1645 84.4587 81.2374 93.7416C91.1128 103.024 97.8279 115.665 95.8529 121.985C93.8778 128.108 84.3975 125.54 74.3246 116.257C64.4492 106.777 57.7339 94.3341 59.709 88.0138Z" fill="url(#paint3_radial_12_2892)"/>
<path d="M76.1024 108.555C75.1149 93.9391 62.8695 82.2861 48.0564 82.2861C33.2434 82.2861 20.9979 93.9391 20.0103 108.555C8.94992 109.147 0.0620117 118.233 0.0620117 129.491C0.0620117 141.144 9.54244 150.426 20.9979 150.426H74.9174C86.5703 150.426 95.8531 140.946 95.8531 129.491C96.0507 118.233 87.3603 109.147 76.1024 108.555Z" fill="url(#paint4_radial_12_2892)"/>
<path d="M76.1024 108.555C75.1149 93.9391 62.8695 82.2861 48.0564 82.2861C33.2434 82.2861 20.9979 93.9391 20.0103 108.555C8.94992 109.147 0.0620117 118.233 0.0620117 129.491C0.0620117 141.144 9.54244 150.426 20.9979 150.426H74.9174C86.5703 150.426 95.8531 140.946 95.8531 129.491C96.0507 118.233 87.3603 109.147 76.1024 108.555Z" fill="url(#paint5_radial_12_2892)"/>
<path d="M48.0563 111.122C40.156 104.802 36.9959 94.9266 41.1436 89.3964C45.2912 83.8662 54.9691 84.4587 62.8694 90.779C70.7697 97.0992 73.9298 106.975 69.7822 112.505C65.832 118.233 55.9566 117.64 48.0563 111.122Z" fill="url(#paint6_radial_12_2892)"/>
<path opacity="0.4" d="M76.2998 130.083C70.177 125.145 67.6094 117.443 70.967 112.9C74.1272 108.555 81.8299 108.95 87.9526 114.085C94.0754 119.023 96.643 126.725 93.2854 131.268C90.1252 135.613 82.62 135.021 76.2998 130.083Z" fill="url(#paint7_radial_12_2892)"/>
<path opacity="0.2" d="M15.0726 130.873C10.5299 123.763 5.19723 120.208 3.22216 123.17C1.24708 126.133 3.4196 134.231 7.96227 141.341C12.5049 148.451 17.8376 152.007 19.8127 149.044C21.7878 146.081 19.8128 137.983 15.0726 130.873Z" fill="url(#paint8_radial_12_2892)"/>
<path d="M195.595 49.4998C194.804 38.2419 185.324 29.1565 173.869 29.1565C162.413 29.1565 152.933 38.0444 152.143 49.4998C143.65 49.8948 136.737 57.0051 136.737 65.6955C136.737 74.5834 144.045 81.8912 152.933 81.8912H194.805C203.692 81.8912 211 74.5834 211 65.6955C211 57.0051 204.285 50.0924 195.595 49.4998Z" fill="url(#paint9_radial_12_2892)"/>
<path d="M195.595 49.4998C194.804 38.2419 185.324 29.1565 173.869 29.1565C162.413 29.1565 152.933 38.0444 152.143 49.4998C143.65 49.8948 136.737 57.0051 136.737 65.6955C136.737 74.5834 144.045 81.8912 152.933 81.8912H194.805C203.692 81.8912 211 74.5834 211 65.6955C211 57.0051 204.285 50.0924 195.595 49.4998Z" fill="url(#paint10_radial_12_2892)"/>
<path d="M173.869 51.6725C167.746 46.7348 165.376 39.2295 168.536 34.8843C171.696 30.5391 179.202 30.9341 185.324 35.8718C191.447 40.8095 193.817 48.3148 190.657 52.66C187.497 57.0052 179.992 56.6102 173.869 51.6725Z" fill="url(#paint11_radial_12_2892)"/>
<path opacity="0.4" d="M195.792 66.288C191.052 62.3378 189.077 56.4126 191.645 53.055C194.212 49.6973 200.137 50.0923 204.878 53.845C209.618 57.7952 211.593 63.7204 209.025 67.078C206.458 70.4357 200.532 70.0407 195.792 66.288Z" fill="url(#paint12_radial_12_2892)"/>
<path opacity="0.2" d="M148.39 66.683C144.835 61.1528 140.688 58.5852 139.108 60.7578C137.528 62.9304 139.108 69.2506 142.663 74.7808C146.218 80.3111 150.366 82.8787 151.946 80.7061C153.526 78.5335 151.946 72.2132 148.39 66.683Z" fill="url(#paint13_radial_12_2892)"/>
<defs>
<linearGradient id="paint0_linear_12_2892" x1="178.088" y1="-1.32987" x2="45.2472" y2="147.115" gradientUnits="userSpaceOnUse">
<stop stop-color="#FFBA24"/>
<stop offset="1" stop-color="#FF5500"/>
</linearGradient>
<radialGradient id="paint1_radial_12_2892" cx="0" cy="0" r="1" gradientUnits="userSpaceOnUse" gradientTransform="translate(121.978 40.5812) rotate(180) scale(106.273 106.273)">
<stop stop-color="#FFF4C3"/>
<stop offset="0.1559" stop-color="#FFE036"/>
<stop offset="1" stop-color="#FA761C"/>
</radialGradient>
<radialGradient id="paint2_radial_12_2892" cx="0" cy="0" r="1" gradientUnits="userSpaceOnUse" gradientTransform="translate(131.09 51.5158) rotate(126.034) scale(22.7571 33.1982)">
<stop stop-color="white"/>
<stop offset="1" stop-color="white" stop-opacity="0"/>
</radialGradient>
<radialGradient id="paint3_radial_12_2892" cx="0" cy="0" r="1" gradientUnits="userSpaceOnUse" gradientTransform="translate(77.7326 104.995) rotate(-136.789) scale(24.7462 10.5107)">
<stop stop-color="white"/>
<stop offset="1" stop-color="white" stop-opacity="0"/>
</radialGradient>
<radialGradient id="paint4_radial_12_2892" cx="0" cy="0" r="1" gradientUnits="userSpaceOnUse" gradientTransform="translate(60.2293 96.7227) rotate(180) scale(73.1613 53.4445)">
<stop stop-color="white"/>
<stop offset="0.198" stop-color="#D5F3FF"/>
<stop offset="1" stop-color="#85BCF1"/>
</radialGradient>
<radialGradient id="paint5_radial_12_2892" cx="0" cy="0" r="1" gradientUnits="userSpaceOnUse" gradientTransform="translate(76.8269 106.271) scale(83.1753 83.1756)">
<stop stop-color="#FFE036"/>
<stop offset="0.00517127" stop-color="#FFDF36" stop-opacity="0.9933"/>
<stop offset="0.1623" stop-color="#FDB92C" stop-opacity="0.789"/>
<stop offset="0.319" stop-color="#FC9C25" stop-opacity="0.5851"/>
<stop offset="0.4735" stop-color="#FB8720" stop-opacity="0.3841"/>
<stop offset="0.6247" stop-color="#FA7A1D" stop-opacity="0.1875"/>
<stop offset="0.7688" stop-color="#FA761C" stop-opacity="0"/>
</radialGradient>
<radialGradient id="paint6_radial_12_2892" cx="0" cy="0" r="1" gradientUnits="userSpaceOnUse" gradientTransform="translate(55.543 100.987) rotate(126.034) scale(12.5916 18.3688)">
<stop stop-color="white"/>
<stop offset="1" stop-color="white" stop-opacity="0"/>
</radialGradient>
<radialGradient id="paint7_radial_12_2892" cx="0" cy="0" r="1" gradientUnits="userSpaceOnUse" gradientTransform="translate(82.1568 122.083) rotate(126.034) scale(9.89608 14.4365)">
<stop stop-color="white"/>
<stop offset="1" stop-color="white" stop-opacity="0"/>
</radialGradient>
<radialGradient id="paint8_radial_12_2892" cx="0" cy="0" r="1" gradientUnits="userSpaceOnUse" gradientTransform="translate(11.5487 136.011) rotate(-25.7093) scale(5.07253 14.7666)">
<stop stop-color="white"/>
<stop offset="1" stop-color="white" stop-opacity="0"/>
</radialGradient>
<radialGradient id="paint9_radial_12_2892" cx="0" cy="0" r="1" gradientUnits="userSpaceOnUse" gradientTransform="translate(183.292 40.4086) rotate(180) scale(56.647 41.3807)">
<stop stop-color="white"/>
<stop offset="0.198" stop-color="#D5F3FF"/>
<stop offset="1" stop-color="#85BCF1"/>
</radialGradient>
<radialGradient id="paint10_radial_12_2892" cx="0" cy="0" r="1" gradientUnits="userSpaceOnUse" gradientTransform="translate(146.284 59.8605) scale(75.699 75.6991)">
<stop stop-color="#FFE036"/>
<stop offset="0.00517127" stop-color="#FFDF36" stop-opacity="0.9933"/>
<stop offset="0.1623" stop-color="#FDB92C" stop-opacity="0.789"/>
<stop offset="0.319" stop-color="#FC9C25" stop-opacity="0.5851"/>
<stop offset="0.4735" stop-color="#FB8720" stop-opacity="0.3841"/>
<stop offset="0.6247" stop-color="#FA7A1D" stop-opacity="0.1875"/>
<stop offset="0.7688" stop-color="#FA761C" stop-opacity="0"/>
</radialGradient>
<radialGradient id="paint11_radial_12_2892" cx="0" cy="0" r="1" gradientUnits="userSpaceOnUse" gradientTransform="translate(179.667 43.7091) rotate(126.034) scale(9.75013 14.2236)">
<stop stop-color="white"/>
<stop offset="1" stop-color="white" stop-opacity="0"/>
</radialGradient>
<radialGradient id="paint12_radial_12_2892" cx="0" cy="0" r="1" gradientUnits="userSpaceOnUse" gradientTransform="translate(200.271 60.0436) rotate(126.034) scale(7.66234 11.1779)">
<stop stop-color="white"/>
<stop offset="1" stop-color="white" stop-opacity="0"/>
</radialGradient>
<radialGradient id="paint13_radial_12_2892" cx="0" cy="0" r="1" gradientUnits="userSpaceOnUse" gradientTransform="translate(145.594 70.8218) rotate(-25.7092) scale(3.92721 11.4325)">
<stop stop-color="white"/>
<stop offset="1" stop-color="white" stop-opacity="0"/>
</radialGradient>
</defs>
</svg>
