<svg width="212" height="184" viewBox="0 0 212 184" fill="none" xmlns="http://www.w3.org/2000/svg">
<path d="M168.531 122.342L151.941 123.33L148.978 139.723L132.98 134.983L124.487 149.401L111.056 139.525L98.2185 149.993L88.9357 136.168L73.3326 141.698L69.3824 125.502L52.7918 125.305L54.5693 108.714L39.1638 102.986L46.4716 87.9756L33.8311 77.1127L45.879 65.6572L37.7812 51.2391L52.9893 44.5238L50.2242 28.1306L66.8148 26.9456L69.9749 10.7499L85.973 15.2926L94.4658 1.07205L107.699 10.9475L120.734 0.479492L129.82 14.3051L145.62 8.77486L149.57 24.9705L166.161 25.168L164.384 41.5612L179.789 47.4865L172.481 62.497L184.924 73.36L173.074 84.8155L181.172 99.2335L165.964 105.949L168.531 122.342Z" fill="url(#paint0_linear_12_2911)"/>
<path d="M109.477 131.032C140.346 131.032 165.371 106.007 165.371 75.1376C165.371 44.2677 140.346 19.2427 109.477 19.2427C78.6069 19.2427 53.582 44.2677 53.582 75.1376C53.582 106.007 78.6069 131.032 109.477 131.032Z" fill="url(#paint1_radial_12_2911)"/>
<path d="M117.969 69.4098C103.748 57.7568 98.2182 40.1786 105.526 30.1057C112.834 20.0328 130.412 21.0204 144.83 32.6733C159.05 44.3263 164.581 61.9045 157.273 71.9774C149.768 82.2479 132.189 81.0628 117.969 69.4098Z" fill="url(#paint2_radial_12_2911)"/>
<path opacity="0.4" d="M59.9019 87.5806C61.877 81.4579 71.3574 84.0254 81.4303 93.3083C91.3056 102.591 98.0209 115.232 96.0458 121.552C94.0707 127.675 84.5904 125.107 74.5175 115.824C64.6421 106.344 58.1244 93.7034 59.9019 87.5806Z" fill="url(#paint3_radial_12_2911)"/>
<path d="M76.4925 108.121C75.505 93.5057 63.2595 81.8528 48.4465 81.8528C33.6334 81.8528 21.3879 93.5057 20.4004 108.121C9.33997 108.714 0.452148 117.799 0.452148 129.057C0.452148 140.71 9.93249 149.993 21.3879 149.993H75.3075C86.9604 149.993 96.2433 140.513 96.2433 129.057C96.4408 117.799 87.5529 108.714 76.4925 108.121Z" fill="url(#paint4_radial_12_2911)"/>
<path d="M76.4925 108.121C75.505 93.5057 63.2595 81.8528 48.4465 81.8528C33.6334 81.8528 21.3879 93.5057 20.4004 108.121C9.33997 108.714 0.452148 117.799 0.452148 129.057C0.452148 140.71 9.93249 149.993 21.3879 149.993H75.3075C86.9604 149.993 96.2433 140.513 96.2433 129.057C96.4408 117.799 87.5529 108.714 76.4925 108.121Z" fill="url(#paint5_radial_12_2911)"/>
<path d="M48.4465 110.689C40.5462 104.369 37.3861 94.4933 41.5337 88.9631C45.6814 83.4328 55.3592 84.0253 63.2595 90.3456C71.1598 96.6658 74.32 106.541 70.1723 112.071C66.0246 117.799 56.3468 117.207 48.4465 110.689Z" fill="url(#paint6_radial_12_2911)"/>
<path opacity="0.4" d="M76.6899 129.65C70.5671 124.712 67.9995 117.009 71.3572 112.466C74.5173 108.121 82.2201 108.516 88.3428 113.652C94.4656 118.589 97.0332 126.292 93.6755 130.835C90.5154 135.18 82.8126 134.587 76.6899 129.65Z" fill="url(#paint7_radial_12_2911)"/>
<path opacity="0.2" d="M15.4627 130.242C10.92 123.132 5.58736 119.577 3.61228 122.539C1.63721 125.502 3.8098 133.6 8.35247 140.71C12.8951 147.82 18.2278 151.376 20.2029 148.413C22.178 145.648 20.0054 137.55 15.4627 130.242Z" fill="url(#paint8_radial_12_2911)"/>
<path d="M195.985 49.0665C195.195 37.8085 185.714 28.7231 174.259 28.7231C162.803 28.7231 153.323 37.611 152.533 49.0665C144.04 49.4615 137.127 56.5718 137.127 65.2621C137.127 74.15 144.435 81.4578 153.323 81.4578H195.195C204.082 81.4578 211.39 74.15 211.39 65.2621C211.39 56.5718 204.478 49.4615 195.985 49.0665Z" fill="url(#paint9_radial_12_2911)"/>
<path d="M195.985 49.0665C195.195 37.8085 185.714 28.7231 174.259 28.7231C162.803 28.7231 153.323 37.611 152.533 49.0665C144.04 49.4615 137.127 56.5718 137.127 65.2621C137.127 74.15 144.435 81.4578 153.323 81.4578H195.195C204.082 81.4578 211.39 74.15 211.39 65.2621C211.39 56.5718 204.478 49.4615 195.985 49.0665Z" fill="url(#paint10_radial_12_2911)"/>
<path d="M174.259 51.0415C168.136 46.1038 165.766 38.5985 168.926 34.2533C172.086 29.9081 179.592 30.3031 185.714 35.2408C191.837 40.1785 194.207 47.6839 191.047 52.029C187.887 56.5717 180.382 56.1767 174.259 51.0415Z" fill="url(#paint11_radial_12_2911)"/>
<path opacity="0.4" d="M195.985 65.8546C191.244 61.9044 189.269 55.9792 191.837 52.6215C194.404 49.2639 200.33 49.659 205.07 53.4116C209.81 57.3618 211.785 63.287 209.218 66.6446C206.65 70.0023 200.725 69.6073 195.985 65.8546Z" fill="url(#paint12_radial_12_2911)"/>
<path opacity="0.2" d="M148.583 66.2497C145.028 60.7195 140.88 58.1519 139.3 60.3245C137.72 62.4971 139.3 68.8173 142.855 74.3475C146.41 79.8777 150.558 82.4453 152.138 80.2727C153.916 78.1002 152.138 71.7799 148.583 66.2497Z" fill="url(#paint13_radial_12_2911)"/>
<path d="M61.4821 179.027C59.3095 182.977 54.3719 184.162 50.4217 181.989C46.4716 179.817 45.2865 174.879 47.4591 170.929C49.6317 166.979 63.6547 159.276 63.6547 159.276C63.6547 159.276 63.6547 175.077 61.4821 179.027Z" fill="url(#paint14_radial_12_2911)"/>
<path d="M47.6565 177.644C46.4714 174.287 47.064 170.929 49.4341 169.941C51.6067 168.954 54.3717 170.929 55.7543 174.089C56.9393 177.447 56.1493 180.804 53.9767 181.792C51.8041 182.779 48.8415 180.804 47.6565 177.644Z" fill="url(#paint15_radial_12_2911)"/>
<path d="M95.4533 179.027C93.2807 182.977 88.3431 184.162 84.3929 181.989C80.4428 179.817 79.2577 174.879 81.4303 170.929C83.6029 166.979 97.6259 159.276 97.6259 159.276C97.6259 159.276 97.6259 175.077 95.4533 179.027Z" fill="url(#paint16_radial_12_2911)"/>
<path d="M81.6277 177.644C80.4426 174.287 81.0352 170.929 83.4053 169.941C85.5778 168.954 88.3429 170.929 89.7255 174.089C90.9105 177.447 90.1205 180.804 87.9479 181.792C85.7754 182.779 82.8127 180.804 81.6277 177.644Z" fill="url(#paint17_radial_12_2911)"/>
<path d="M129.425 179.027C127.252 182.977 122.314 184.162 118.364 181.989C114.414 179.817 113.229 174.879 115.401 170.929C117.574 166.979 131.597 159.276 131.597 159.276C131.597 159.276 131.597 175.077 129.425 179.027Z" fill="url(#paint18_radial_12_2911)"/>
<path d="M115.599 177.644C114.414 174.287 115.006 170.929 117.376 169.941C119.549 168.954 122.314 170.929 123.697 174.089C124.882 177.447 124.092 180.804 121.919 181.792C119.549 182.779 116.784 180.804 115.599 177.644Z" fill="url(#paint19_radial_12_2911)"/>
<path d="M163.396 179.027C161.224 182.977 156.286 184.162 152.336 181.989C148.386 179.817 147.201 174.879 149.373 170.929C151.546 166.979 165.569 159.276 165.569 159.276C165.569 159.276 165.569 175.077 163.396 179.027Z" fill="url(#paint20_radial_12_2911)"/>
<path d="M149.571 177.644C148.386 174.287 148.978 170.929 151.348 169.941C153.521 168.954 156.286 170.929 157.668 174.089C158.853 177.447 158.063 180.804 155.891 181.792C153.521 182.779 150.756 180.804 149.571 177.644Z" fill="url(#paint21_radial_12_2911)"/>
<defs>
<linearGradient id="paint0_linear_12_2911" x1="178.346" y1="-1.78376" x2="45.5049" y2="146.662" gradientUnits="userSpaceOnUse">
<stop stop-color="#FFBA24"/>
<stop offset="1" stop-color="#FF5500"/>
</linearGradient>
<radialGradient id="paint1_radial_12_2911" cx="0" cy="0" r="1" gradientUnits="userSpaceOnUse" gradientTransform="translate(122.236 40.1274) rotate(180) scale(106.273 106.273)">
<stop stop-color="#FFF4C3"/>
<stop offset="0.1559" stop-color="#FFE036"/>
<stop offset="1" stop-color="#FA761C"/>
</radialGradient>
<radialGradient id="paint2_radial_12_2911" cx="0" cy="0" r="1" gradientUnits="userSpaceOnUse" gradientTransform="translate(131.347 51.0619) rotate(126.034) scale(22.7571 33.1982)">
<stop stop-color="white"/>
<stop offset="1" stop-color="white" stop-opacity="0"/>
</radialGradient>
<radialGradient id="paint3_radial_12_2911" cx="0" cy="0" r="1" gradientUnits="userSpaceOnUse" gradientTransform="translate(77.9902 104.542) rotate(-136.79) scale(24.7463 10.5107)">
<stop stop-color="white"/>
<stop offset="1" stop-color="white" stop-opacity="0"/>
</radialGradient>
<radialGradient id="paint4_radial_12_2911" cx="0" cy="0" r="1" gradientUnits="userSpaceOnUse" gradientTransform="translate(60.4867 96.2612) rotate(180) scale(73.1613 53.4445)">
<stop stop-color="white"/>
<stop offset="0.198" stop-color="#D5F3FF"/>
<stop offset="1" stop-color="#85BCF1"/>
</radialGradient>
<radialGradient id="paint5_radial_12_2911" cx="0" cy="0" r="1" gradientUnits="userSpaceOnUse" gradientTransform="translate(77.0843 105.817) scale(83.1753 83.1756)">
<stop stop-color="#FFE036"/>
<stop offset="0.00517127" stop-color="#FFDF36" stop-opacity="0.9933"/>
<stop offset="0.1623" stop-color="#FDB92C" stop-opacity="0.789"/>
<stop offset="0.319" stop-color="#FC9C25" stop-opacity="0.5851"/>
<stop offset="0.4735" stop-color="#FB8720" stop-opacity="0.3841"/>
<stop offset="0.6247" stop-color="#FA7A1D" stop-opacity="0.1875"/>
<stop offset="0.7688" stop-color="#FA761C" stop-opacity="0"/>
</radialGradient>
<radialGradient id="paint6_radial_12_2911" cx="0" cy="0" r="1" gradientUnits="userSpaceOnUse" gradientTransform="translate(55.801 100.534) rotate(126.034) scale(12.5916 18.3688)">
<stop stop-color="white"/>
<stop offset="1" stop-color="white" stop-opacity="0"/>
</radialGradient>
<radialGradient id="paint7_radial_12_2911" cx="0" cy="0" r="1" gradientUnits="userSpaceOnUse" gradientTransform="translate(82.4145 121.629) rotate(126.034) scale(9.8958 14.4361)">
<stop stop-color="white"/>
<stop offset="1" stop-color="white" stop-opacity="0"/>
</radialGradient>
<radialGradient id="paint8_radial_12_2911" cx="0" cy="0" r="1" gradientUnits="userSpaceOnUse" gradientTransform="translate(11.8436 135.561) rotate(-25.7092) scale(5.07254 14.7666)">
<stop stop-color="white"/>
<stop offset="1" stop-color="white" stop-opacity="0"/>
</radialGradient>
<radialGradient id="paint9_radial_12_2911" cx="0" cy="0" r="1" gradientUnits="userSpaceOnUse" gradientTransform="translate(183.55 39.947) rotate(180) scale(56.6471 41.3808)">
<stop stop-color="white"/>
<stop offset="0.198" stop-color="#D5F3FF"/>
<stop offset="1" stop-color="#85BCF1"/>
</radialGradient>
<radialGradient id="paint10_radial_12_2911" cx="0" cy="0" r="1" gradientUnits="userSpaceOnUse" gradientTransform="translate(146.542 59.4068) scale(75.6991 75.6993)">
<stop stop-color="#FFE036"/>
<stop offset="0.00517127" stop-color="#FFDF36" stop-opacity="0.9933"/>
<stop offset="0.1623" stop-color="#FDB92C" stop-opacity="0.789"/>
<stop offset="0.319" stop-color="#FC9C25" stop-opacity="0.5851"/>
<stop offset="0.4735" stop-color="#FB8720" stop-opacity="0.3841"/>
<stop offset="0.6247" stop-color="#FA7A1D" stop-opacity="0.1875"/>
<stop offset="0.7688" stop-color="#FA761C" stop-opacity="0"/>
</radialGradient>
<radialGradient id="paint11_radial_12_2911" cx="0" cy="0" r="1" gradientUnits="userSpaceOnUse" gradientTransform="translate(179.924 43.2552) rotate(126.034) scale(9.75014 14.2236)">
<stop stop-color="white"/>
<stop offset="1" stop-color="white" stop-opacity="0"/>
</radialGradient>
<radialGradient id="paint12_radial_12_2911" cx="0" cy="0" r="1" gradientUnits="userSpaceOnUse" gradientTransform="translate(200.529 59.5898) rotate(126.034) scale(7.66233 11.1779)">
<stop stop-color="white"/>
<stop offset="1" stop-color="white" stop-opacity="0"/>
</radialGradient>
<radialGradient id="paint13_radial_12_2911" cx="0" cy="0" r="1" gradientUnits="userSpaceOnUse" gradientTransform="translate(145.888 70.3714) rotate(-25.7092) scale(3.92721 11.4324)">
<stop stop-color="white"/>
<stop offset="1" stop-color="white" stop-opacity="0"/>
</radialGradient>
<radialGradient id="paint14_radial_12_2911" cx="0" cy="0" r="1" gradientUnits="userSpaceOnUse" gradientTransform="translate(50.6215 177.105) rotate(30.0008) scale(19.5348 19.5349)">
<stop stop-color="#D0F2FF"/>
<stop offset="0.198" stop-color="#D5F3FF"/>
<stop offset="1" stop-color="#85BCF1"/>
</radialGradient>
<radialGradient id="paint15_radial_12_2911" cx="0" cy="0" r="1" gradientUnits="userSpaceOnUse" gradientTransform="translate(51.6531 175.832) rotate(156.037) scale(4.36498 6.36747)">
<stop stop-color="white"/>
<stop offset="1" stop-color="white" stop-opacity="0"/>
</radialGradient>
<radialGradient id="paint16_radial_12_2911" cx="0" cy="0" r="1" gradientUnits="userSpaceOnUse" gradientTransform="translate(84.5781 177.106) rotate(30.0008) scale(19.535 19.5351)">
<stop stop-color="#D0F2FF"/>
<stop offset="0.198" stop-color="#D5F3FF"/>
<stop offset="1" stop-color="#85BCF1"/>
</radialGradient>
<radialGradient id="paint17_radial_12_2911" cx="0" cy="0" r="1" gradientUnits="userSpaceOnUse" gradientTransform="translate(85.6102 175.832) rotate(156.037) scale(4.36498 6.36747)">
<stop stop-color="white"/>
<stop offset="1" stop-color="white" stop-opacity="0"/>
</radialGradient>
<radialGradient id="paint18_radial_12_2911" cx="0" cy="0" r="1" gradientUnits="userSpaceOnUse" gradientTransform="translate(118.536 177.106) rotate(30.0008) scale(19.5356 19.5357)">
<stop stop-color="#D0F2FF"/>
<stop offset="0.198" stop-color="#D5F3FF"/>
<stop offset="1" stop-color="#85BCF1"/>
</radialGradient>
<radialGradient id="paint19_radial_12_2911" cx="0" cy="0" r="1" gradientUnits="userSpaceOnUse" gradientTransform="translate(119.567 175.833) rotate(156.037) scale(4.36497 6.36747)">
<stop stop-color="white"/>
<stop offset="1" stop-color="white" stop-opacity="0"/>
</radialGradient>
<radialGradient id="paint20_radial_12_2911" cx="0" cy="0" r="1" gradientUnits="userSpaceOnUse" gradientTransform="translate(152.493 177.106) rotate(30.0008) scale(19.5348 19.5349)">
<stop stop-color="#D0F2FF"/>
<stop offset="0.198" stop-color="#D5F3FF"/>
<stop offset="1" stop-color="#85BCF1"/>
</radialGradient>
<radialGradient id="paint21_radial_12_2911" cx="0" cy="0" r="1" gradientUnits="userSpaceOnUse" gradientTransform="translate(153.525 175.832) rotate(156.037) scale(4.36497 6.36747)">
<stop stop-color="white"/>
<stop offset="1" stop-color="white" stop-opacity="0"/>
</radialGradient>
</defs>
</svg>
